<?xml version="1.0" encoding="UTF-8"?>
<svg xmlns="http://www.w3.org/2000/svg" xmlns:xlink="http://www.w3.org/1999/xlink" width="6755" height="2255" viewBox="0 0 6755 2255">
<path fill-rule="nonzero" fill="rgb(99.609375%, 99.609375%, 99.609375%)" fill-opacity="1" d="M 2.34375 0 C 1.722656 0 1.125 0.25 0.6875 0.691406 C 0.246094 1.121094 0 1.71875 0 2.339844 L 0 2252.34375 C 0 2253.640625 1.050781 2254.6875 2.34375 2254.6875 L 6752.339844 2254.6875 C 6752.960938 2254.6875 6753.558594 2254.441406 6754 2254.003906 C 6754.441406 2253.5625 6754.691406 2252.96875 6754.691406 2252.34375 L 6754.691406 2.339844 C 6754.691406 1.050781 6753.640625 0 6752.339844 0 Z M 2.34375 0 "/>
<path fill-rule="nonzero" fill="rgb(0%, 0%, 0%)" fill-opacity="1" d="M 5165.171875 871.421875 C 5176.449219 871.421875 5185.929688 880.199219 5186.628906 891.609375 L 5236.769531 1698.582031 C 5237.5 1710.449219 5228.480469 1720.667969 5216.609375 1721.402344 C 5216.160156 1721.433594 5215.710938 1721.445312 5215.261719 1721.445312 C 5203.980469 1721.445312 5194.5 1712.664062 5193.789062 1701.253906 L 5143.660156 894.28125 C 5142.921875 882.421875 5151.941406 872.199219 5163.808594 871.460938 C 5164.269531 871.429688 5164.710938 871.421875 5165.171875 871.421875 Z M 5430 872.621094 C 5441.890625 872.621094 5451.53125 882.261719 5451.53125 894.148438 L 5451.53125 1702.675781 C 5451.53125 1714.5625 5441.890625 1724.203125 5430 1724.203125 C 5418.109375 1724.203125 5408.46875 1714.5625 5408.46875 1702.675781 L 5408.46875 894.148438 C 5408.46875 882.261719 5418.109375 872.621094 5430 872.621094 Z M 5693.289062 875.039062 C 5693.75 875.039062 5694.191406 875.058594 5694.648438 875.078125 C 5706.519531 875.820312 5715.539062 886.039062 5714.800781 897.910156 L 5664.671875 1704.875 C 5663.960938 1716.285156 5654.480469 1725.066406 5643.199219 1725.066406 C 5642.75 1725.066406 5642.308594 1725.054688 5641.851562 1725.027344 C 5629.980469 1724.289062 5620.960938 1714.070312 5621.691406 1702.203125 L 5671.828125 895.230469 C 5672.539062 883.820312 5682.019531 875.039062 5693.289062 875.039062 Z M 5928.191406 699.019531 L 4931.128906 699.019531 C 4930.921875 699.019531 4930.710938 699.121094 4930.570312 699.269531 C 4930.421875 699.429688 4930.351562 699.648438 4930.371094 699.859375 L 5025.441406 1775.710938 C 5025.449219 1775.847656 5025.5 1775.96875 5025.570312 1776.074219 L 5025.539062 1776.074219 C 5025.570312 1776.253906 5025.601562 1776.4375 5025.621094 1776.609375 L 5027.328125 1787.824219 L 5027.339844 1787.875 L 5029.609375 1798.277344 L 5029.621094 1798.324219 L 5032.53125 1808.558594 L 5032.539062 1808.605469 L 5036.101562 1818.644531 L 5036.121094 1818.6875 L 5040.289062 1828.476562 L 5040.308594 1828.523438 L 5045.101562 1838.03125 L 5045.121094 1838.074219 L 5050.5 1847.265625 L 5050.519531 1847.304688 L 5056.460938 1856.136719 L 5056.488281 1856.175781 L 5062.96875 1864.617188 L 5063 1864.652344 L 5070.011719 1872.671875 L 5070.039062 1872.707031 L 5077.53125 1880.265625 C 5077.589844 1880.320312 5077.648438 1880.367188 5077.71875 1880.40625 L 5077.691406 1880.40625 L 5085.519531 1887.363281 L 5085.558594 1887.394531 L 5094.21875 1894.160156 L 5094.261719 1894.1875 L 5103.339844 1900.371094 L 5103.378906 1900.398438 L 5112.839844 1905.976562 L 5112.878906 1906 L 5122.679688 1910.953125 L 5122.730469 1910.972656 L 5132.828125 1915.28125 L 5132.878906 1915.296875 L 5143.238281 1918.941406 C 5143.300781 1918.960938 5143.351562 1918.972656 5143.410156 1918.976562 L 5143.378906 1918.980469 L 5153.871094 1921.914062 L 5153.910156 1921.925781 L 5164.660156 1924.195312 C 5164.710938 1924.207031 5164.761719 1924.210938 5164.808594 1924.210938 L 5164.769531 1924.210938 L 5175.578125 1925.765625 L 5175.628906 1925.773438 L 5186.570312 1926.628906 C 5186.589844 1926.632812 5186.609375 1926.632812 5186.628906 1926.632812 C 5186.640625 1926.632812 5186.640625 1926.632812 5186.648438 1926.632812 L 5186.679688 1926.632812 L 5198.328125 1926.785156 C 5198.980469 1926.792969 5199.640625 1926.832031 5200.28125 1926.898438 C 5200.308594 1926.902344 5200.328125 1926.902344 5200.359375 1926.902344 C 5200.371094 1926.902344 5200.378906 1926.902344 5200.398438 1926.902344 L 5200.359375 1926.902344 L 5659.148438 1926.449219 L 5659.25 1926.449219 C 5659.828125 1926.398438 5660.421875 1926.375 5661.011719 1926.375 C 5661.199219 1926.375 5661.339844 1926.378906 5661.53125 1926.382812 L 5672.441406 1926.640625 C 5672.441406 1926.640625 5672.449219 1926.640625 5672.460938 1926.640625 C 5672.480469 1926.640625 5672.488281 1926.640625 5672.5 1926.640625 L 5672.488281 1926.640625 L 5682.699219 1926.25 C 5682.71875 1926.25 5682.738281 1926.246094 5682.761719 1926.246094 L 5682.75 1926.246094 L 5692.929688 1925.226562 C 5692.941406 1925.222656 5692.960938 1925.222656 5692.980469 1925.21875 L 5703.058594 1923.570312 L 5703.109375 1923.5625 L 5713.078125 1921.292969 L 5713.128906 1921.28125 L 5722.941406 1918.402344 L 5722.980469 1918.386719 L 5732.601562 1914.902344 L 5732.640625 1914.886719 L 5742.03125 1910.816406 L 5742.070312 1910.796875 L 5751.179688 1906.15625 L 5751.21875 1906.136719 L 5760.03125 1900.9375 L 5760.070312 1900.914062 L 5768.539062 1895.183594 L 5768.578125 1895.15625 L 5776.671875 1888.921875 L 5776.699219 1888.890625 L 5784.710938 1881.878906 L 5784.738281 1881.84375 L 5792.269531 1874.34375 L 5792.300781 1874.308594 L 5799.328125 1866.332031 L 5799.359375 1866.292969 L 5805.871094 1857.886719 L 5805.890625 1857.847656 L 5811.839844 1849.050781 L 5811.859375 1849.007812 L 5817.238281 1839.832031 L 5817.261719 1839.789062 L 5822.03125 1830.296875 L 5822.050781 1830.253906 L 5826.199219 1820.464844 L 5826.21875 1820.421875 L 5829.738281 1810.378906 L 5829.75 1810.332031 L 5832.609375 1800.101562 L 5832.628906 1800.054688 L 5834.820312 1789.664062 L 5834.839844 1789.613281 L 5836.460938 1778.378906 C 5836.488281 1778.1875 5836.519531 1778.007812 5836.550781 1777.828125 L 5836.511719 1777.828125 C 5836.589844 1777.71875 5836.648438 1777.582031 5836.660156 1777.4375 L 5928.960938 699.859375 C 5928.980469 699.640625 5928.910156 699.429688 5928.761719 699.269531 C 5928.609375 699.109375 5928.410156 699.019531 5928.191406 699.019531 Z M 5928.191406 699.019531 "/>
<path fill-rule="nonzero" fill="rgb(0%, 0%, 0%)" fill-opacity="1" d="M 4778.140625 550.710938 C 4777.941406 550.710938 4777.75 550.800781 4777.601562 550.941406 C 4777.460938 551.078125 4777.378906 551.28125 4777.378906 551.480469 L 4777.378906 655.199219 C 4777.378906 655.398438 4777.460938 655.601562 4777.601562 655.738281 C 4777.75 655.890625 4777.941406 655.96875 4778.140625 655.96875 L 6060.351562 655.96875 C 6060.769531 655.96875 6061.121094 655.621094 6061.121094 655.199219 L 6061.121094 551.480469 C 6061.121094 551.058594 6060.769531 550.710938 6060.351562 550.710938 Z M 4778.140625 550.710938 "/>
<path fill-rule="nonzero" fill="rgb(0%, 0%, 0%)" fill-opacity="1" d="M 5424.410156 339.628906 L 5424.339844 339.640625 L 5408.480469 340.679688 L 5408.410156 340.691406 L 5392.679688 343.039062 L 5392.691406 343.039062 L 5392.648438 343.039062 C 5392.640625 343.039062 5392.628906 343.050781 5392.621094 343.050781 L 5377.140625 346.679688 L 5377.078125 346.699219 L 5361.941406 351.589844 L 5361.890625 351.609375 L 5347.210938 357.730469 L 5347.148438 357.761719 L 5333.03125 365.058594 L 5332.96875 365.089844 L 5319.488281 373.53125 L 5319.441406 373.570312 L 5306.699219 383.089844 L 5306.648438 383.121094 L 5294.738281 393.660156 L 5294.691406 393.699219 L 5283.679688 405.179688 L 5283.640625 405.230469 L 5273.609375 417.570312 L 5273.570312 417.621094 L 5264.589844 430.75 L 5264.558594 430.800781 L 5256.691406 444.609375 L 5256.660156 444.671875 L 5249.941406 459.089844 L 5249.921875 459.148438 L 5244.421875 474.070312 L 5244.398438 474.121094 L 5240.140625 489.449219 L 5240.128906 489.511719 L 5237.140625 505.128906 L 5237.128906 505.191406 L 5236.960938 506.808594 C 5236.941406 507.019531 5237.011719 507.238281 5237.148438 507.398438 C 5237.289062 507.558594 5237.5 507.660156 5237.730469 507.660156 C 5237.738281 507.660156 5237.75 507.660156 5237.769531 507.660156 L 5620.601562 507.660156 C 5620.800781 507.660156 5621 507.578125 5621.140625 507.429688 C 5621.289062 507.289062 5621.371094 507.089844 5621.371094 506.890625 L 5621.359375 506.800781 L 5620.898438 502.949219 L 5620.890625 502.890625 L 5617.839844 487.789062 L 5617.828125 487.730469 L 5613.589844 472.929688 L 5613.570312 472.871094 L 5608.171875 458.449219 L 5608.140625 458.398438 L 5601.609375 444.449219 L 5601.578125 444.398438 L 5593.960938 431.019531 L 5593.929688 430.960938 L 5585.269531 418.238281 L 5585.230469 418.191406 L 5575.578125 406.179688 L 5575.578125 406.191406 C 5575.570312 406.171875 5575.558594 406.148438 5575.539062 406.140625 L 5564.960938 394.941406 L 5564.921875 394.898438 L 5553.488281 384.578125 L 5553.441406 384.539062 L 5541.230469 375.160156 L 5541.179688 375.128906 L 5528.261719 366.75 L 5528.269531 366.75 C 5528.25 366.738281 5528.230469 366.730469 5528.210938 366.71875 L 5514.660156 359.398438 L 5514.609375 359.371094 L 5500.519531 353.148438 L 5500.460938 353.128906 L 5485.929688 348.050781 L 5485.871094 348.03125 L 5470.980469 344.121094 L 5470.910156 344.109375 L 5455.761719 341.398438 C 5455.738281 341.390625 5455.71875 341.390625 5455.691406 341.390625 L 5440.390625 339.898438 C 5440.371094 339.890625 5440.351562 339.890625 5440.320312 339.890625 Z M 5424.410156 339.628906 "/>
<path fill-rule="nonzero" fill="rgb(0%, 0%, 0%)" fill-opacity="1" d="M 3020.570312 869.140625 C 3031.851562 869.140625 3041.320312 877.929688 3042.039062 889.339844 L 3092.171875 1696.308594 C 3092.898438 1708.171875 3083.878906 1718.390625 3072.019531 1719.128906 C 3071.558594 1719.15625 3071.109375 1719.171875 3070.660156 1719.171875 C 3059.378906 1719.171875 3049.898438 1710.386719 3049.199219 1698.976562 L 2999.058594 892.011719 C 2998.320312 880.140625 3007.351562 869.921875 3019.21875 869.191406 C 3019.679688 869.160156 3020.109375 869.140625 3020.570312 869.140625 Z M 3285.398438 870.339844 C 3297.289062 870.339844 3306.929688 879.980469 3306.929688 891.871094 L 3306.929688 1700.398438 C 3306.929688 1712.285156 3297.289062 1721.925781 3285.398438 1721.925781 C 3273.519531 1721.925781 3263.878906 1712.285156 3263.878906 1700.398438 L 3263.878906 891.871094 C 3263.878906 879.980469 3273.519531 870.339844 3285.398438 870.339844 Z M 3548.691406 872.769531 C 3549.148438 872.769531 3549.589844 872.78125 3550.050781 872.808594 C 3561.910156 873.539062 3570.941406 883.761719 3570.199219 895.628906 L 3520.070312 1702.597656 C 3519.359375 1714.011719 3509.878906 1722.792969 3498.609375 1722.792969 C 3498.148438 1722.792969 3497.710938 1722.777344 3497.25 1722.75 C 3485.378906 1722.011719 3476.359375 1711.796875 3477.101562 1699.929688 L 3527.230469 892.960938 C 3527.941406 881.550781 3537.410156 872.769531 3548.691406 872.769531 Z M 3783.589844 696.75 L 2786.539062 696.75 C 2786.320312 696.75 2786.109375 696.839844 2785.96875 697 C 2785.820312 697.160156 2785.75 697.371094 2785.769531 697.589844 L 2880.839844 1773.4375 C 2880.851562 1773.570312 2880.898438 1773.691406 2880.96875 1773.796875 L 2880.929688 1773.796875 C 2880.96875 1773.976562 2881 1774.164062 2881.019531 1774.335938 L 2882.730469 1785.550781 L 2882.738281 1785.597656 L 2885.011719 1796.003906 L 2885.019531 1796.050781 L 2887.929688 1806.28125 L 2887.949219 1806.328125 L 2891.5 1816.367188 L 2891.519531 1816.414062 L 2895.691406 1826.203125 L 2895.71875 1826.246094 L 2900.5 1835.753906 L 2900.519531 1835.796875 L 2905.890625 1844.988281 L 2905.921875 1845.027344 L 2911.859375 1853.859375 L 2911.890625 1853.898438 L 2918.378906 1862.339844 L 2918.410156 1862.375 L 2925.410156 1870.394531 L 2925.449219 1870.429688 L 2932.929688 1877.988281 C 2932.988281 1878.046875 2933.058594 1878.09375 2933.121094 1878.128906 L 2933.089844 1878.128906 L 2940.921875 1885.089844 L 2940.960938 1885.121094 L 2949.621094 1891.882812 L 2949.660156 1891.910156 L 2958.738281 1898.09375 L 2958.78125 1898.121094 L 2968.238281 1903.699219 L 2968.289062 1903.722656 L 2978.089844 1908.675781 L 2978.128906 1908.695312 L 2988.230469 1913.003906 L 2988.28125 1913.019531 L 2998.640625 1916.664062 C 2998.699219 1916.683594 2998.75 1916.695312 2998.808594 1916.703125 L 2998.78125 1916.703125 L 3009.269531 1919.636719 L 3009.320312 1919.648438 L 3020.058594 1921.917969 C 3020.109375 1921.929688 3020.160156 1921.933594 3020.21875 1921.933594 L 3020.171875 1921.933594 L 3030.980469 1923.492188 L 3031.03125 1923.496094 L 3041.980469 1924.355469 C 3042 1924.355469 3042.019531 1924.355469 3042.039062 1924.355469 C 3042.039062 1924.355469 3042.050781 1924.355469 3042.050781 1924.355469 L 3042.089844 1924.355469 L 3053.730469 1924.507812 C 3054.390625 1924.515625 3055.039062 1924.554688 3055.679688 1924.621094 C 3055.710938 1924.625 3055.730469 1924.625 3055.761719 1924.625 C 3055.769531 1924.625 3055.789062 1924.625 3055.800781 1924.625 L 3055.769531 1924.625 L 3514.550781 1924.175781 L 3514.570312 1924.175781 L 3514.609375 1924.171875 L 3514.648438 1924.171875 C 3515.230469 1924.125 3515.820312 1924.097656 3516.410156 1924.097656 C 3516.601562 1924.097656 3516.738281 1924.101562 3516.929688 1924.105469 L 3527.839844 1924.363281 C 3527.851562 1924.363281 3527.859375 1924.363281 3527.859375 1924.363281 C 3527.878906 1924.363281 3527.890625 1924.363281 3527.910156 1924.363281 L 3527.890625 1924.363281 L 3538.109375 1923.972656 C 3538.128906 1923.972656 3538.140625 1923.972656 3538.160156 1923.96875 L 3538.148438 1923.96875 L 3548.328125 1922.949219 C 3548.351562 1922.945312 3548.359375 1922.945312 3548.378906 1922.941406 L 3558.46875 1921.292969 L 3558.511719 1921.285156 L 3568.480469 1919.015625 L 3568.53125 1919.003906 L 3578.339844 1916.125 L 3578.378906 1916.109375 L 3588 1912.628906 L 3588.050781 1912.609375 L 3597.429688 1908.539062 L 3597.46875 1908.519531 L 3606.578125 1903.882812 L 3606.621094 1903.859375 L 3615.429688 1898.660156 L 3615.46875 1898.636719 L 3623.941406 1892.90625 L 3623.980469 1892.878906 L 3632.070312 1886.648438 L 3632.109375 1886.617188 L 3640.109375 1879.601562 L 3640.140625 1879.566406 L 3647.671875 1872.066406 L 3647.699219 1872.03125 L 3654.730469 1864.054688 L 3654.769531 1864.019531 L 3661.269531 1855.609375 L 3661.300781 1855.570312 L 3667.238281 1846.773438 L 3667.269531 1846.730469 L 3672.640625 1837.554688 L 3672.660156 1837.511719 L 3677.429688 1828.019531 L 3677.449219 1827.976562 L 3681.609375 1818.191406 L 3681.621094 1818.144531 L 3685.140625 1808.105469 L 3685.160156 1808.054688 L 3688.019531 1797.828125 L 3688.03125 1797.777344 L 3690.230469 1787.386719 L 3690.230469 1787.339844 L 3691.871094 1776.105469 C 3691.890625 1775.910156 3691.921875 1775.734375 3691.949219 1775.550781 L 3691.910156 1775.554688 C 3692 1775.441406 3692.050781 1775.308594 3692.058594 1775.160156 L 3784.359375 697.578125 C 3784.378906 697.371094 3784.308594 697.160156 3784.160156 697 C 3784.019531 696.839844 3783.808594 696.75 3783.589844 696.75 Z M 3783.589844 696.75 "/>
<path fill-rule="nonzero" fill="rgb(0%, 0%, 0%)" fill-opacity="1" d="M 4381.230469 704.71875 C 4381.429688 704.769531 4381.589844 704.910156 4381.691406 705.078125 C 4381.800781 705.261719 4381.820312 705.46875 4381.769531 705.660156 L 4354.929688 805.839844 C 4354.878906 806.039062 4354.75 806.210938 4354.570312 806.308594 C 4354.390625 806.410156 4354.179688 806.441406 4353.980469 806.390625 L 3115.46875 474.53125 C 3115.058594 474.421875 3114.820312 474 3114.929688 473.589844 L 3141.769531 373.410156 C 3141.878906 373 3142.308594 372.75 3142.71875 372.859375 Z M 4381.230469 704.71875 "/>
<path fill-rule="nonzero" fill="rgb(0%, 0%, 0%)" fill-opacity="1" d="M 3811.621094 333.570312 L 3811.679688 333.589844 L 3826.730469 338.710938 L 3826.789062 338.730469 L 3841.378906 345.070312 L 3841.371094 345.070312 L 3841.410156 345.078125 C 3841.421875 345.089844 3841.429688 345.089844 3841.441406 345.089844 L 3855.449219 352.609375 L 3855.511719 352.640625 L 3868.859375 361.28125 L 3868.910156 361.320312 L 3881.5 371.03125 L 3881.550781 371.070312 L 3893.308594 381.78125 L 3893.351562 381.820312 L 3904.179688 393.460938 L 3904.230469 393.519531 L 3914.070312 406.011719 L 3914.109375 406.058594 L 3922.890625 419.320312 L 3922.921875 419.371094 L 3930.578125 433.308594 L 3930.609375 433.359375 L 3937.109375 447.871094 L 3937.128906 447.929688 L 3942.410156 462.941406 L 3942.429688 463 L 3946.449219 478.378906 L 3946.46875 478.441406 L 3949.21875 494.109375 L 3949.230469 494.171875 L 3950.679688 510 L 3950.679688 510.070312 L 3950.828125 525.980469 L 3950.828125 526.039062 L 3949.671875 541.890625 L 3949.660156 541.960938 L 3949.410156 543.558594 C 3949.378906 543.78125 3949.25 543.96875 3949.070312 544.089844 C 3948.890625 544.199219 3948.671875 544.25 3948.449219 544.191406 C 3948.441406 544.179688 3948.429688 544.179688 3948.410156 544.179688 L 3948.378906 544.171875 L 3578.628906 445.089844 C 3578.429688 445.039062 3578.261719 444.910156 3578.160156 444.730469 C 3578.058594 444.558594 3578.03125 444.351562 3578.078125 444.148438 L 3578.109375 444.058594 L 3579.550781 440.460938 L 3579.578125 440.410156 L 3586.429688 426.621094 L 3586.460938 426.558594 L 3594.378906 413.359375 L 3594.410156 413.308594 L 3603.371094 400.78125 L 3603.410156 400.730469 L 3613.320312 388.949219 L 3613.371094 388.910156 L 3624.191406 377.960938 L 3624.230469 377.910156 L 3635.898438 367.859375 L 3635.941406 367.820312 L 3648.371094 358.730469 C 3648.390625 358.710938 3648.410156 358.699219 3648.421875 358.691406 L 3661.53125 350.609375 L 3661.589844 350.578125 L 3675.300781 343.570312 L 3675.359375 343.550781 L 3689.578125 337.648438 L 3689.640625 337.628906 L 3704.28125 332.878906 L 3704.28125 332.890625 C 3704.300781 332.878906 3704.320312 332.871094 3704.339844 332.871094 L 3719.320312 329.300781 L 3719.378906 329.289062 L 3734.601562 326.929688 L 3734.660156 326.921875 L 3750.019531 325.769531 L 3750.078125 325.769531 L 3765.480469 325.851562 L 3765.539062 325.859375 L 3780.878906 327.160156 C 3780.898438 327.160156 3780.921875 327.160156 3780.941406 327.171875 L 3796.121094 329.691406 L 3796.109375 329.691406 C 3796.128906 329.691406 3796.160156 329.691406 3796.179688 329.699219 Z M 3811.621094 333.570312 "/>
<path fill-rule="nonzero" fill="rgb(0%, 0%, 0%)" fill-opacity="1" d="M 864.320312 871.488281 C 875.597656 871.488281 885.074219 880.269531 885.785156 891.679688 L 935.917969 1698.652344 C 936.652344 1710.515625 927.632812 1720.734375 915.765625 1721.472656 C 915.308594 1721.5 914.859375 1721.515625 914.410156 1721.515625 C 903.132812 1721.515625 893.652344 1712.730469 892.945312 1701.320312 L 842.8125 894.351562 C 842.074219 882.480469 851.097656 872.269531 862.964844 871.53125 C 863.425781 871.5 863.863281 871.488281 864.320312 871.488281 Z M 1129.148438 872.691406 C 1141.039062 872.691406 1150.679688 882.328125 1150.679688 894.210938 L 1150.679688 1702.742188 C 1150.679688 1714.628906 1141.039062 1724.269531 1129.148438 1724.269531 C 1117.269531 1724.269531 1107.628906 1714.628906 1107.628906 1702.742188 L 1107.628906 894.210938 C 1107.628906 882.328125 1117.269531 872.691406 1129.148438 872.691406 Z M 1392.441406 875.109375 C 1392.898438 875.109375 1393.339844 875.121094 1393.800781 875.148438 C 1405.660156 875.890625 1414.691406 886.109375 1413.949219 897.96875 L 1363.820312 1704.941406 C 1363.109375 1716.355469 1353.628906 1725.136719 1342.359375 1725.136719 C 1341.898438 1725.136719 1341.460938 1725.121094 1341 1725.09375 C 1329.128906 1724.355469 1320.109375 1714.140625 1320.851562 1702.273438 L 1370.980469 895.300781 C 1371.691406 883.890625 1381.160156 875.109375 1392.441406 875.109375 Z M 1627.339844 699.089844 L 630.285156 699.089844 C 630.066406 699.089844 629.863281 699.179688 629.714844 699.339844 C 629.570312 699.5 629.496094 699.710938 629.515625 699.929688 L 724.589844 1775.78125 C 724.601562 1775.914062 724.648438 1776.035156 724.71875 1776.140625 L 724.683594 1776.140625 C 724.71875 1776.320312 724.746094 1776.507812 724.773438 1776.679688 L 726.484375 1787.894531 L 726.492188 1787.941406 L 728.757812 1798.347656 L 728.769531 1798.394531 L 731.679688 1808.625 L 731.695312 1808.671875 L 735.25 1818.710938 L 735.265625 1818.757812 L 739.441406 1828.546875 L 739.464844 1828.589844 L 744.246094 1838.097656 L 744.269531 1838.140625 L 749.644531 1847.332031 L 749.671875 1847.371094 L 755.613281 1856.203125 L 755.640625 1856.242188 L 762.125 1864.683594 L 762.15625 1864.71875 L 769.160156 1872.738281 L 769.195312 1872.773438 L 776.683594 1880.332031 C 776.742188 1880.390625 776.804688 1880.4375 776.871094 1880.472656 L 776.839844 1880.472656 L 784.667969 1887.433594 L 784.707031 1887.464844 L 793.371094 1894.226562 L 793.410156 1894.253906 L 802.488281 1900.4375 L 802.53125 1900.464844 L 811.992188 1906.042969 L 812.035156 1906.066406 L 821.835938 1911.019531 L 821.882812 1911.039062 L 831.984375 1915.347656 L 832.03125 1915.363281 L 842.394531 1919.007812 C 842.449219 1919.027344 842.503906 1919.039062 842.5625 1919.046875 L 842.527344 1919.046875 L 853.015625 1921.980469 L 853.066406 1921.992188 L 863.808594 1924.261719 C 863.859375 1924.273438 863.914062 1924.277344 863.964844 1924.277344 L 863.917969 1924.277344 L 874.730469 1925.835938 L 874.777344 1925.839844 L 885.726562 1926.699219 C 885.746094 1926.699219 885.765625 1926.699219 885.785156 1926.699219 C 885.792969 1926.699219 885.796875 1926.699219 885.800781 1926.699219 L 885.835938 1926.699219 L 897.480469 1926.851562 C 898.136719 1926.859375 898.792969 1926.898438 899.429688 1926.964844 C 899.457031 1926.96875 899.484375 1926.96875 899.511719 1926.96875 C 899.523438 1926.96875 899.535156 1926.96875 899.550781 1926.96875 L 899.515625 1926.96875 L 1358.300781 1926.519531 L 1358.320312 1926.519531 L 1358.359375 1926.515625 L 1358.398438 1926.515625 C 1358.980469 1926.46875 1359.570312 1926.441406 1360.160156 1926.441406 C 1360.351562 1926.441406 1360.488281 1926.445312 1360.679688 1926.449219 L 1371.589844 1926.707031 C 1371.601562 1926.707031 1371.609375 1926.707031 1371.609375 1926.707031 C 1371.628906 1926.707031 1371.640625 1926.707031 1371.660156 1926.707031 L 1371.640625 1926.707031 L 1381.859375 1926.316406 C 1381.878906 1926.316406 1381.890625 1926.316406 1381.910156 1926.3125 L 1381.898438 1926.3125 L 1392.078125 1925.292969 C 1392.101562 1925.289062 1392.109375 1925.289062 1392.128906 1925.285156 L 1402.210938 1923.636719 L 1402.261719 1923.628906 L 1412.230469 1921.359375 L 1412.28125 1921.347656 L 1422.089844 1918.46875 L 1422.128906 1918.453125 L 1431.75 1914.972656 L 1431.800781 1914.953125 L 1441.179688 1910.882812 L 1441.21875 1910.863281 L 1450.328125 1906.226562 L 1450.371094 1906.203125 L 1459.179688 1901.003906 L 1459.21875 1900.980469 L 1467.691406 1895.25 L 1467.730469 1895.222656 L 1475.820312 1888.992188 L 1475.859375 1888.960938 L 1483.859375 1881.945312 L 1483.890625 1881.910156 L 1491.421875 1874.410156 L 1491.449219 1874.375 L 1498.480469 1866.398438 L 1498.519531 1866.363281 L 1505.019531 1857.953125 L 1505.050781 1857.914062 L 1510.988281 1849.117188 L 1511.019531 1849.074219 L 1516.390625 1839.898438 L 1516.410156 1839.855469 L 1521.179688 1830.363281 L 1521.199219 1830.320312 L 1525.359375 1820.535156 L 1525.371094 1820.488281 L 1528.890625 1810.449219 L 1528.910156 1810.398438 L 1531.769531 1800.171875 L 1531.78125 1800.121094 L 1533.980469 1789.730469 L 1533.980469 1789.683594 L 1535.621094 1778.449219 C 1535.640625 1778.253906 1535.671875 1778.078125 1535.699219 1777.894531 L 1535.660156 1777.898438 C 1535.75 1777.785156 1535.800781 1777.652344 1535.808594 1777.503906 L 1628.109375 699.929688 C 1628.128906 699.710938 1628.058594 699.5 1627.910156 699.339844 C 1627.769531 699.179688 1627.558594 699.089844 1627.339844 699.089844 Z M 1627.339844 699.089844 "/>
<path fill-rule="nonzero" fill="rgb(0%, 0%, 0%)" fill-opacity="1" d="M 2081.089844 1878.894531 C 2081.140625 1879.09375 2081.121094 1879.304688 2081.019531 1879.480469 C 2080.910156 1879.65625 2080.75 1879.789062 2080.550781 1879.839844 L 1980.371094 1906.683594 C 1980.171875 1906.738281 1979.960938 1906.707031 1979.789062 1906.605469 C 1979.609375 1906.503906 1979.480469 1906.335938 1979.429688 1906.136719 L 1647.570312 667.621094 C 1647.460938 667.210938 1647.699219 666.789062 1648.109375 666.679688 L 1748.289062 639.839844 C 1748.699219 639.730469 1749.128906 639.96875 1749.230469 640.390625 Z M 2081.089844 1878.894531 "/>
<path fill-rule="nonzero" fill="rgb(0%, 0%, 0%)" fill-opacity="1" d="M 2117.71875 1200.019531 L 2117.730469 1200.089844 L 2120.828125 1215.679688 L 2120.839844 1215.75 L 2122.640625 1231.550781 L 2122.628906 1231.539062 L 2122.640625 1231.578125 C 2122.640625 1231.589844 2122.640625 1231.601562 2122.640625 1231.609375 L 2123.140625 1247.5 L 2123.140625 1247.570312 L 2122.328125 1263.449219 L 2122.328125 1263.511719 L 2120.21875 1279.273438 L 2120.210938 1279.335938 L 2116.808594 1294.871094 L 2116.789062 1294.933594 L 2112.128906 1310.136719 L 2112.109375 1310.195312 L 2106.210938 1324.964844 L 2106.179688 1325.023438 L 2099.089844 1339.257812 L 2099.058594 1339.316406 L 2090.828125 1352.917969 L 2090.789062 1352.96875 L 2081.46875 1365.851562 L 2081.429688 1365.898438 L 2071.070312 1377.972656 L 2071.03125 1378.019531 L 2059.71875 1389.199219 L 2059.679688 1389.242188 L 2047.480469 1399.457031 L 2047.429688 1399.496094 L 2034.449219 1408.671875 L 2034.390625 1408.703125 L 2020.691406 1416.785156 L 2020.640625 1416.816406 L 2006.328125 1423.742188 L 2006.269531 1423.765625 L 2004.75 1424.351562 C 2004.550781 1424.429688 2004.320312 1424.417969 2004.128906 1424.320312 C 2003.941406 1424.222656 2003.789062 1424.050781 2003.730469 1423.832031 C 2003.730469 1423.820312 2003.730469 1423.808594 2003.71875 1423.792969 L 2003.71875 1423.761719 L 1904.640625 1054 C 1904.589844 1053.808594 1904.609375 1053.601562 1904.71875 1053.421875 C 1904.820312 1053.25 1904.980469 1053.109375 1905.179688 1053.058594 L 1905.269531 1053.039062 L 1909.109375 1052.488281 L 1909.171875 1052.488281 L 1924.539062 1051.519531 L 1924.601562 1051.519531 L 1940 1051.789062 L 1940.058594 1051.789062 L 1955.378906 1053.28125 L 1955.441406 1053.289062 L 1970.609375 1055.988281 L 1970.660156 1056 L 1985.558594 1059.898438 L 1985.621094 1059.921875 L 2000.160156 1064.988281 L 2000.21875 1065.011719 L 2014.308594 1071.230469 C 2014.320312 1071.230469 2014.339844 1071.238281 2014.359375 1071.25 L 2027.910156 1078.570312 L 2027.96875 1078.601562 L 2040.890625 1086.96875 L 2040.941406 1087 L 2053.160156 1096.371094 L 2053.210938 1096.410156 L 2064.640625 1106.730469 L 2064.640625 1106.71875 C 2064.660156 1106.738281 2064.671875 1106.75 2064.691406 1106.769531 L 2075.269531 1117.960938 L 2075.308594 1118 L 2084.960938 1130 L 2085 1130.050781 L 2093.660156 1142.78125 L 2093.699219 1142.828125 L 2101.328125 1156.199219 L 2101.359375 1156.261719 L 2107.890625 1170.199219 L 2107.890625 1170.191406 C 2107.898438 1170.210938 2107.910156 1170.230469 2107.921875 1170.25 L 2113.320312 1184.660156 L 2113.320312 1184.648438 C 2113.328125 1184.671875 2113.339844 1184.691406 2113.351562 1184.71875 Z M 2117.71875 1200.019531 "/>
</svg>
